# xmcd
# 
# Track frame offsets:
#     150
#     18071
#     34824
#     46512
#     63605
#     80945
#     95867
#     117931
#     142130
#     158768
#     178160
#     207162
#     226220
# 
# Disc length: 3194
# 
# Revision: 0
# Processed by: cddbd v1.5.2PL0 Copyright (c) Steve Scherf et al.
# Submitted via: fre:ac v1.0.27
# 
DISCID=b10c780d
DTITLE=Mary Black - 25 Years 25 Songs CD 2
DYEAR=2014
DGENRE=Folk
TTITLE0=No Frontiers
TTITLE1=Still Believing
TTITLE2=Once In A Very Blue Moon
TTITLE3=Only A Woman's Heart
TTITLE4=Don't Say Ok
TTITLE5=As I Leave Behind Neidin
TTITLE6=Your Love
TTITLE7=Columbus
TTITLE8=Bless The Road
TTITLE9=Adam At The Window
TTITLE10=Anachie Gordon
TTITLE11=Flesh And Blood
TTITLE12=If I Have To Go
EXTD=
EXTT0=
EXTT1=
EXTT2=
EXTT3=
EXTT4=
EXTT5=
EXTT6=
EXTT7=
EXTT8=
EXTT9=
EXTT10=
EXTT11=
EXTT12=
PLAYORDER=
